<?xml version="1.0" encoding="utf-8"?>
<!-- Generator: Adobe Illustrator 16.0.3, SVG Export Plug-In . SVG Version: 6.00 Build 0)  -->
<!DOCTYPE svg PUBLIC "-//W3C//DTD SVG 1.1//EN" "http://www.w3.org/Graphics/SVG/1.1/DTD/svg11.dtd">
<svg version="1.1" id="Layer_1" xmlns="http://www.w3.org/2000/svg" xmlns:xlink="http://www.w3.org/1999/xlink" x="0px" y="0px"
	 width="560px" height="425px" viewBox="0 0 560 425" enable-background="new 0 0 560 425" xml:space="preserve">
<g>
	<path fill="#1976d2" d="M154.652,95.115c0.6-0.594,1.2-1.188,1.8-1.779c0,0.001-0.146,0.13-0.146,0.13
		c0.336-0.796,0.466-1.81,1.04-2.355c4.26-4.054,8.238-8.541,13.005-11.897c10.394-7.319,20.859-14.657,31.917-20.883
		c19.381-10.916,40.344-17.611,62.506-20.041c10.138-1.111,20.369-2.251,30.533-2.066c31.008,0.565,60.45,7.813,87.692,22.906
		c7.731,4.283,15.037,9.348,22.444,14.197c3.33,2.181,3.213,4.478-0.47,6.275c-5.489,2.68-11.193,4.916-16.771,7.421
		c-22.995,10.329-45.961,20.724-68.968,31.028c-23.333,10.45-46.682,20.864-70.068,31.193c-4.674,2.063-9.533,3.708-14.337,5.465
		c-0.929,0.34-1.993,0.306-3.18-0.373c0.546-0.208,1.093-0.415,1.718-0.653c-0.258-0.295-0.439-0.691-0.731-0.807
		c-2.331-0.922-2.604-2.696-2.264-4.892c0.586-3.766-0.392-6.587-3.981-8.816c-2.117-1.315-3.318-4.128-4.892-6.297
		c-8.193-11.291-26.679-10.188-35.697,1.32c-0.806,1.028-1.902,2.362-1.808,3.463c0.335,3.911-2.402,3.947-4.949,4.636
		c-19.816,5.357-39.613,10.786-59.418,16.185c-0.917,0.25-1.851,0.433-3.34,0.777c1.418-3.65,2.65-6.823,4.021-10.354
		c-1.523,0-2.59,0-4.285,0c4.148-7.511,7.926-14.878,12.21-21.939c3.447-5.682,7.144-11.298,11.396-16.387
		c4.598-5.502,9.969-10.357,15.002-15.497C154.635,95.075,154.652,95.115,154.652,95.115z"/>
	<path fill="#1976d2" d="M233.987,218.852c-2.433,1.305-5.273,2.139-8.019,2.508c-5.802,0.783-11.675,1.033-17.496,1.703
		c-1.233,0.142-2.795,0.838-3.474,1.795c-2.328,3.289-4.33,6.808-6.604,10.477c-1.101-0.702-2.327-1.064-2.41-1.605
		c-0.538-3.477-3.271-6.112-2.853-10.158c0.381-3.67-0.951-7.574-1.858-11.295c-0.463-1.9-1.809-3.467,0.313-5.343
		c0.742-0.655,0.496-2.429,0.723-3.822c-0.89-0.146-1.932-0.315-3.168-0.518c0.244-0.53,0.302-0.98,0.533-1.104
		c2.725-1.459,5.387-1.76,8.657-1.34c15.144,1.943,30.396,1.785,45.529,0c23.098-2.725,44.971-9.576,65.438-20.8
		c16.043-8.797,30.666-19.619,45.046-30.832c9.019-7.032,17.822-14.431,27.393-20.631c7.899-5.119,16.754-8.787,25.285-12.891
		c0.807-0.388,2.619,0.391,3.471,1.169c6.075,5.561,11.789,11.536,18.057,16.863c12.985,11.034,25.666,22.599,42.48,27.909
		c1.508,0.477,3.121,2.414,3.623,4.007c4.542,14.397,7.677,28.992,8.771,44.195c1.114,15.479-0.593,30.505-3.427,45.554
		c-0.244,1.299-1.463,2.404-2.181,3.627c-0.344,0.586-0.807,1.229-0.824,1.856c-0.251,8.265-2.776,18.716-6.27,25.899
		c-2.302-1.784-4.655-3.61-7.258-5.627c-0.382,0.593-0.938,1.455-2.141,3.316c0.216-2.058,0.251-3.08,0.438-4.074
		c2.237-11.826,1.797-23.227-4.184-34.146c-2.207-4.028-4.344-7.502-8.678-9.647c-2.535-1.256-4.408-3.851-6.277-5.564
		c-1.896-0.4-3.768-0.527-5.427-1.188c-15.507-6.181-31.764-9.082-48.188-11.358c-1.448-0.2-2.727-1.628-3.831-2.83
		c-2.539-0.838-5.173-1.463-7.602-2.548c-14.345-6.409-29.294-10.265-44.92-12.173C310.705,197.554,244.864,213.014,233.987,218.852
		z M473.02,273.457c-0.482-0.082-0.966-0.164-1.449-0.246c-0.479,2.494-0.957,4.989-1.437,7.482c0.58,0.097,1.16,0.191,1.74,0.287
		C472.256,278.475,472.638,275.965,473.02,273.457z"/>
</g>
<g>
	<path fill="#111842" d="M308.661,353.122c-20.853-0.556-41.702-1.328-62.559-1.621c-44.612-0.629-89.229-0.974-133.843-1.599
		c-2.272-0.031-5.127-1.034-6.604-2.618c-1.323-1.42-1.8-4.415-1.354-6.431c0.313-1.424,2.675-2.599,4.347-3.44
		c1.013-0.511,2.452-0.202,3.7-0.213c31.496-0.275,63.005-0.095,94.486-0.942c30.063-0.811,60.094-2.751,90.145-4.07
		c12.104-0.531,24.222-0.732,36.338-1.636c-1.334,0-2.667,0.023-4.001-0.004c-61.724-1.252-123.446-2.509-185.17-3.764
		c-0.375-0.009-0.761-0.074-1.123-0.009c-8.609,1.558-14.357-2.053-17.74-10.39c6.333-0.241,12.748-0.565,19.167-0.722
		c25.354-0.615,50.709-1.125,76.062-1.782c13.73-0.356,27.459-0.844,41.182-1.424c29.053-1.228,58.1-2.554,87.148-3.849
		c0.695-0.03,1.388-0.149,2.082-0.229c0.002-0.37,0.005-0.739,0.007-1.11c-4.635,0-9.269,0.033-13.902-0.006
		c-89.234-0.767-178.47-1.541-267.705-2.316c-1.499-0.014-3.011,0.039-4.496-0.121c-3.364-0.363-6.226-3.244-6.431-6.338
		c-0.207-3.127,1.901-5.706,5.551-6.535c1.317-0.299,2.723-0.28,4.089-0.283c34.997-0.078,69.996-0.023,104.993-0.234
		c41.858-0.254,83.715-0.854,125.573-1.061c20.241-0.1,40.51-0.182,60.721,0.716c22.185,0.984,44.34,2.876,66.469,4.82
		c12.029,1.057,23.979,3.028,35.957,4.638c1.151,0.154,2.256,0.66,3.43,1.018c-65.047,117.394-213.68,133.863-299.479,58.675
		c47.676-2.308,95.372-4.613,143.068-6.921C308.731,353.254,308.696,353.188,308.661,353.122z"/>
	<path fill="#111842" d="M163.729,197.776c3.514,3.666,6.769,7.063,10.025,10.46c0.433,0.451,0.861,0.906,1.306,1.346
		c11.466,11.363,7.796,21.182-3.229,28.09c-15.02,9.411-31.448,16.067-48.008,22.284c-0.247-0.297-0.494-0.595-0.74-0.894
		c12.328-12.42,24.656-24.84,37.617-37.896c-6.502-3.405-12.582-6.673-18.771-9.717c-0.731-0.36-2.103,0.404-3.11,0.81
		c-10.42,4.196-20.719,8.727-31.285,12.51c-4.711,1.688-9.936,2.526-14.957,2.662c-18.984,0.514-37.981,0.584-56.975,0.816
		c-0.915,0.011-1.83,0.001-2.746,0.001c-0.065-0.341-0.131-0.683-0.195-1.022c9.042-3.013,17.984-6.386,27.152-8.949
		c12.115-3.385,24.469-5.912,36.593-9.268c4.995-1.381,9.911-3.507,14.428-6.064c12.271-6.947,24.308-14.305,36.431-21.511
		c0.396-0.234,0.714-0.596,1.544-1.305c-30.979,0-61.372,0-87.793,0c16.987-2.694,37.985-5.409,58.711-9.5
		c17.719-3.497,35.339-7.882,52.593-13.2c11.08-3.415,19.541-2.071,27.114,6.738c3.479,4.047,7.853,7.315,11.69,11.07
		c1.524,1.49,2.767,1.513,4.599,0.564c6.094-3.159,12.276-6.149,18.443-9.164c1.342-0.656,2.72-1.455,4.157-1.664
		c6.225-0.905,12.189-1.879,17.773-5.532c5.266-3.445,11.484-5.433,17.29-8.046c56.584-25.471,113.126-51.04,169.793-76.327
		c12.411-5.539,25.097-10.593,37.974-14.923c12.28-4.131,24.875-3.84,36.943,1.533c31.224,13.899,36.085,51.804,15.967,75.205
		c-14.767,17.176-37.958,22.177-60.549,13.21c-8.644-3.431-16.667-7.976-23.612-14.249c-12.887-11.638-25.788-23.257-38.585-34.991
		c-1.92-1.76-3.354-2.371-5.812-0.92c-2.993,1.767-6.217,3.288-9.52,4.367c-16.5,5.386-28.029,17.882-40.845,28.472
		c-21.063,17.406-42.989,33.34-68.353,44.102c-20.541,8.716-41.946,12.718-64.159,12.934c-1.374,0.014-2.766-0.014-4.117,0.186
		c-7.689,1.133-14.639-0.373-20.538-5.658c-2.938-2.633-5.584-2.32-8.968-0.304c-6.967,4.152-14.281,7.716-21.445,11.537
		C166.382,196.199,165.239,196.904,163.729,197.776z M360.708,121.464c-0.241-0.373-0.482-0.745-0.724-1.117
		c-3.057,1.52-6.063,3.149-9.177,4.542c-31.898,14.275-63.896,28.337-95.683,42.86c-10.317,4.715-20.096,10.608-30.12,15.963
		c0.144,0.507,0.287,1.015,0.431,1.522c10.319-1.44,20.781-2.225,30.929-4.45c27.292-5.987,51.474-18.813,73.71-35.427
		C340.446,137.608,350.507,129.441,360.708,121.464z M487.654,108.079c4.601,0.581,9.365,1.212,14.142,1.746
		c0.504,0.056,1.29-0.31,1.574-0.729c3.714-5.498,7.361-11.04,11.626-17.478c-5.851-0.312-10.406-0.616-14.969-0.733
		c-0.688-0.018-1.641,0.676-2.063,1.313C494.539,97.354,491.21,102.574,487.654,108.079z M509.547,111.152
		c4.694,0.636,8.981,1.33,13.296,1.713c0.964,0.086,2.494-0.652,2.962-1.469c2.411-4.211,4.637-8.536,6.727-12.917
		c0.354-0.742-0.023-2.672-0.478-2.825c-3.4-1.152-6.893-2.051-10.393-2.871c-0.479-0.112-1.396,0.509-1.716,1.032
		C516.519,99.423,513.171,105.08,509.547,111.152z M492.97,128.385c4.813,1.414,9.173,2.831,13.615,3.906
		c1.106,0.268,2.911-0.166,3.656-0.964c3.53-3.788,6.807-7.814,10.729-12.406c-5.606-0.835-10.242-1.592-14.898-2.155
		c-0.827-0.1-1.977,0.381-2.597,0.983C500.027,121.106,496.696,124.585,492.97,128.385z M501.663,67.673
		c-0.369-0.369-0.74-0.738-1.109-1.106c-4.014,0.366-8.03,0.698-12.034,1.148c-0.447,0.051-1.064,0.714-1.189,1.2
		c-1.424,5.541-2.768,11.103-4.063,16.372c3.057,0,6.52,0.093,9.974-0.061c0.938-0.042,2.405-0.613,2.673-1.309
		C497.963,78.554,499.776,73.099,501.663,67.673z M502.245,84.994c4.577,0.3,9.043,0.679,13.517,0.812
		c0.842,0.025,2.153-0.733,2.487-1.473c1.178-2.605,2.081-5.341,2.946-8.072c0.176-0.556-0.044-1.575-0.463-1.929
		c-3.941-3.326-8.376-5.606-13.446-6.331C505.552,73.848,503.93,79.315,502.245,84.994z M467.896,104.468
		c3.55,0.724,7.123,1.505,10.724,2.141c0.733,0.129,1.897-0.017,2.304-0.503c3.827-4.602,7.532-9.304,11.272-13.977
		c-0.253-0.376-0.506-0.751-0.76-1.127c-4.406,0.319-8.814,0.621-13.219,0.984c-0.433,0.036-0.96,0.349-1.23,0.698
		C473.97,96.545,470.995,100.438,467.896,104.468z M475.332,140.415c11.13,6.163,21.105,5.057,26.863-3.058
		c-4.537-1.368-9.001-2.754-13.496-4.032c-0.788-0.224-1.896-0.313-2.526,0.074C482.521,135.637,478.968,138.037,475.332,140.415z
		 M473.362,121.485c4.175,1.623,7.729,3.109,11.37,4.345c0.886,0.301,2.376,0.151,3.031-0.425c3.419-2.997,6.657-6.198,10.435-9.778
		c-5.445-0.943-9.941-1.745-14.448-2.473c-0.55-0.088-1.331,0.036-1.723,0.382C479.259,115.99,476.563,118.529,473.362,121.485z
		 M479.2,130.756c-8.273-5.633-14.821-5.648-21.426-0.05C466.511,138.157,473.138,138.173,479.2,130.756z M481.401,69.397
		c-2.479,0.878-4.501,1.462-6.396,2.327c-0.889,0.405-1.956,1.228-2.209,2.079c-1.257,4.22-2.267,8.514-3.608,13.732
		c2.688-0.835,5.86-0.837,6.938-2.34C479.292,80.771,481.108,75.586,481.401,69.397z M533.644,120.189
		c-3.02,0.177-5.954-0.529-7.002,0.567c-3.879,4.065-7.136,8.724-11.12,13.788c2.554,0.221,5.36,1.359,6.669,0.417
		C527.009,131.485,530.82,126.935,533.644,120.189z M455.284,113.535c10.899,5.992,15.372,5.626,19.506-1.819
		C468.125,111.167,461.322,106.526,455.284,113.535z M454.189,87.296c8.699,0.908,12.354-2.886,11.679-11.729
		C459.265,76.495,455.085,80.192,454.189,87.296z M442.19,92.721c-7.594-0.163-14.813-3.277-22.154,1.698
		C427.719,95.611,435.032,101.942,442.19,92.721z M442.513,118.052c2.109,1.692,3.85,3.021,5.516,4.438
		c5.396,4.582,6.473,4.584,12.313-0.223c-2.773-1.429-5.677-2.575-8.181-4.301C449.056,115.826,446.206,116.108,442.513,118.052z
		 M457.793,93.601c-7.138-1.867-9.915-0.616-13.161,5.425C451.005,102.21,453.804,97.104,457.793,93.601z M456.465,102.591
		c1.399,0.115,3.282,0.854,4.034,0.231c3.453-2.867,6.591-6.114,9.841-9.226c-0.278-0.409-0.558-0.819-0.835-1.229
		c-1.811,0.513-4.074,0.517-5.34,1.643C461.438,96.437,459.225,99.44,456.465,102.591z M523.672,86.434
		c3.235,0.959,6.149,1.823,9.063,2.688c0.191-0.246,0.383-0.492,0.573-0.737c-2.099-2.879-4.195-5.758-6.567-9.012
		C525.563,82.086,524.675,84.126,523.672,86.434z M452.881,107.326c-4.753-1.292-9.402-2.557-14.056-3.821
		C449.473,110.538,449.524,110.55,452.881,107.326z M502.854,143.778c0.172,0.461,0.344,0.922,0.515,1.382
		c3.626-1.442,7.251-2.885,11.453-4.558C508.672,136.969,506.858,143.385,502.854,143.778z M439.745,85.854
		c8.127,1.632,8.571,1.41,9.44-4.022C445.987,83.195,442.866,84.525,439.745,85.854z M531.104,113.713
		c1.877,0.094,3.245,0.164,4.633,0.234c0.309-2.986,0.566-5.49,0.824-7.992c-0.213-0.094-0.428-0.188-0.641-0.281
		C534.401,108.21,532.882,110.746,531.104,113.713z"/>
	<path fill="#111842" d="M221.194,237.104c-3.197,0.512-6.396,1.021-9.603,1.532c1.538-2.931,3.577-5.217,7.701-5.165
		c5.741,0.07,11.497-0.527,17.229-0.326c3.795,0.133,6.599-0.961,9.29-3.6c5.43-5.324,12.495-9.42,18.881-11.459
		c-5.499,4.238-10.813,8.332-16.125,12.428c0.109,0.365,0.22,0.73,0.33,1.098c30.514-1.424,61.027-2.848,92.463-4.314
		c-9.084-8.734-19.156-14.524-30.809-17.765c24.43,1.446,48.329,4.429,69.804,17.712c3.728,2.306,9.102,2.064,13.753,2.744
		c13.604,1.99,26.983,4.576,39.72,10.185c16.56,7.294,21.378,23.845,16.229,39.162c-21.185-0.931-42.211-1.854-63.266-2.78
		c2.727-11.225,0.577-21.094-9.659-28.101c-6.823-4.671-15.885-4.468-22.912,0.272c-8.134,5.483-11.301,15.34-8.817,28.069
		c-29.718,0-59.359,0-89.363,0c1.966-8.724,0.494-16.543-5.774-22.979c-3.706-3.803-8.254-5.945-13.674-6.086
		c-13.634-0.351-20.483,8.277-21.993,28.487c-3.637-0.472-7.252-0.952-10.871-1.401c-0.863-0.107-1.739-0.162-2.608-0.162
		c-57.235-0.067-114.471-0.123-171.706-0.195c-4.701-0.006-7.276-1.807-7.821-5.309c-0.595-3.83,1.731-6.783,5.906-6.889
		c10.489-0.262,20.983-0.41,31.476-0.426c46.488-0.068,92.978-0.098,139.466-0.044c2.476,0.003,3.581-0.709,4.073-3.11
		c0.446-2.185,1.348-4.277,2.077-6.399c1.223-3.55,3.028-5.894,7.222-7.024c3.686-0.992,6.791-4.135,10.152-6.328
		C221.706,238.32,221.45,237.713,221.194,237.104z M395.651,239.516c4.821,8.327,19.865,12.942,29.359,9.131
		C417.004,239.624,406.384,240.352,395.651,239.516z M446.091,257.627c-0.064-4.855-4.11-8.98-7.563-8.841
		c-2.711,0.108-4.806,1.116-4.594,4.5c0.236,3.771,3.809,7.551,7.437,7.438C444.188,260.635,446.079,259.329,446.091,257.627z"/>
	<path fill="#111842" d="M365.371,284.157c-7.335,0.062-13.732-7.063-13.771-15.339c-0.036-8.233,6.419-15.274,14.176-15.457
		c7.827-0.186,14.621,7.037,14.782,15.716C380.718,277.527,374.117,284.081,365.371,284.157z"/>
	<path fill="#111842" d="M249.477,270.457c-0.004,8.457-6.014,14.73-14.124,14.749c-7.418,0.015-13.578-6.631-13.528-14.597
		c0.052-8.31,6.274-14.955,14.075-15.031C243.436,255.504,249.481,262.128,249.477,270.457z"/>
	<path fill="#111842" d="M222.48,148.397c-2.122,0.482-4.243,0.964-6.817,1.55c-0.268,0.85-0.629,2.283-1.162,3.648
		c-1.582,4.061-6.059,6.866-10.35,6.563c-4.599-0.324-8.459-3.695-9.426-8.229c-1.825-8.57,1.504-14.713,9.017-15.229
		c2.862-0.196,7.064,1.001,8.567,3.076c2.701,3.727,5.314,6.707,10.242,7.105C222.528,147.389,222.504,147.893,222.48,148.397z"/>
	<path fill="#111842" d="M437.179,280.896c-4.663,7.531-10.864,10.564-18.514,10.688c-8.294,0.133-14.105-3.928-18.29-12.363
		C412.875,279.788,424.646,280.325,437.179,280.896z"/>
	<path fill="#111842" d="M274.746,279.529c11.175,0,21.896,0,32.661,0c-1.571,4.736-7.089,8.545-12.587,8.925
		C286.732,289.012,278.987,288.879,274.746,279.529z"/>
	<path fill="#111842" d="M125.023,245.65c-3.094,1.996-5.862,4.021-10.267,3.211c-7.299-1.344-14.76-1.81-22.173-2.883
		c10.737-0.442,21.475-0.886,32.212-1.326C124.872,244.984,124.947,245.316,125.023,245.65z"/>
</g>
</svg>
